<?xml version="1.0" encoding="utf-8"?>
<!-- Generator: Adobe Illustrator 16.0.0, SVG Export Plug-In . SVG Version: 6.00 Build 0)  -->
<!DOCTYPE svg PUBLIC "-//W3C//DTD SVG 1.1//EN" "http://www.w3.org/Graphics/SVG/1.1/DTD/svg11.dtd">
<svg version="1.1" id="logo" xmlns="http://www.w3.org/2000/svg" xmlns:xlink="http://www.w3.org/1999/xlink" x="0px" y="0px"
	 width="433.701px" height="51.023px" viewBox="0 0.488 433.701 51.023" enable-background="new 0 0.488 433.701 51.023"
	 xml:space="preserve">
<g id="Layer_4" display="none">
	<path display="inline" fill="#224099" d="M181.545,26.448c0-7.277,0-14.207,9.488-14.207c5.866,0,8.229,3.236,8,9.142h-5.642
		c0-3.659-0.649-5.029-2.358-5.029c-3.24,0-3.661,3.047-3.661,10.094c0,7.045,0.421,10.092,3.661,10.092
		c2.666,0,2.547-3.425,2.626-5.599h5.673c0,7.354-2.929,9.717-8.299,9.717C181.545,40.658,181.545,33.646,181.545,26.448"/>
	<polygon display="inline" fill="#224099" points="201.655,40.201 201.655,12.696 210.91,12.696 215.21,31.398 215.292,31.398 
		219.863,12.696 228.812,12.696 228.812,40.201 223.214,40.201 223.214,18.981 223.135,18.981 217.844,40.201 212.355,40.201 
		207.324,18.981 207.253,18.981 207.253,40.201 	"/>
	<polygon display="inline" fill="#224099" points="249.686,12.696 249.686,17.267 243.281,17.267 243.281,40.197 237.529,40.197 
		237.529,17.267 231.127,17.267 231.127,12.696 	"/>
	<rect x="259.82" y="12.696" display="inline" fill="#224099" width="5.756" height="27.501"/>
	<polygon display="inline" fill="#224099" points="267.895,40.201 267.895,12.696 275.666,12.696 282.977,31.741 283.056,31.741 
		283.056,12.696 288.426,12.696 288.426,40.201 280.847,40.201 273.343,20.085 273.261,20.085 273.261,40.201 	"/>
	<polygon display="inline" fill="#224099" points="290.744,40.201 290.744,12.696 305.031,12.696 305.031,16.926 296.496,16.926 
		296.496,23.973 304.646,23.973 304.646,28.202 296.496,28.202 296.496,40.201 	"/>
	<path display="inline" fill="#224099" d="M307.347,26.448c0-7.277,0-14.207,9.488-14.207c9.483,0,9.483,6.929,9.483,14.207
		c0,7.199,0,14.21-9.483,14.21C307.347,40.658,307.347,33.646,307.347,26.448 M320.492,26.448c0-7.047-0.422-10.094-3.657-10.094
		c-3.236,0-3.658,3.047-3.658,10.094c0,7.045,0.422,10.092,3.658,10.092C320.071,36.54,320.492,33.493,320.492,26.448"/>
	<path display="inline" fill="#224099" d="M351.807,37.453c-2.244,2.709-4.725,3.28-8.078,3.28c-3.614,0-7.268-1.827-7.268-7.732
		c0-4.264,1.826-5.523,5.027-7.925c-1.866-2.281-3.508-3.693-3.508-6.858c0-4.228,2.098-6.055,6.326-6.055
		c3.426,0,5.595,1.37,5.595,5.831c0,3.655-2.477,5.291-5.027,7.425l6.479,7.846c0.646-2.055,0.988-6.401,0.988-8.492h2.284
		c0,2.091-0.189,6.973-1.595,10.591l3.957,4.834h-3.123L351.807,37.453z M342.933,26.714c-2.555,1.826-4.035,2.968-4.035,6.248
		c0,3.886,2.13,5.712,5.862,5.712c2.169,0,4.46-1.142,5.484-3.118L342.933,26.714z M347.468,17.839c0-2.21-0.917-3.62-3.354-3.62
		c-2.213,0-3.693,1.22-3.693,3.506c0,2.742,1.327,4.077,3.004,6.055C345.524,22.257,347.468,20.656,347.468,17.839"/>
	<path display="inline" fill="#224099" d="M364.236,26.448c0-7.277,0-14.207,9.484-14.207c5.866,0,8.229,3.236,8,9.142h-5.642
		c0-3.659-0.649-5.029-2.358-5.029c-3.236,0-3.661,3.047-3.661,10.094c0,7.045,0.425,10.092,3.661,10.092
		c2.665,0,2.548-3.425,2.63-5.599h5.67c0,7.354-2.93,9.717-8.3,9.717C364.236,40.658,364.236,33.646,364.236,26.448"/>
	<path display="inline" fill="#224099" d="M384.342,26.448c0-7.277,0-14.207,9.488-14.207c9.48,0,9.48,6.929,9.48,14.207
		c0,7.199,0,14.21-9.48,14.21C384.342,40.658,384.342,33.646,384.342,26.448 M397.488,26.448c0-7.047-0.421-10.094-3.657-10.094
		c-3.24,0-3.657,3.047-3.657,10.094c0,7.045,0.417,10.092,3.657,10.092C397.067,36.54,397.488,33.493,397.488,26.448"/>
	<polygon display="inline" fill="#224099" points="405.629,40.201 405.629,12.696 414.889,12.696 419.189,31.398 419.271,31.398 
		423.842,12.696 432.786,12.696 432.786,40.201 427.193,40.201 427.193,18.981 427.114,18.981 421.823,40.201 416.334,40.201 
		411.303,18.981 411.232,18.981 411.232,40.201 	"/>
	<polygon display="inline" fill="#224099" points="435.11,40.201 435.11,12.696 444.369,12.696 448.668,31.398 448.747,31.398 
		453.318,12.696 462.267,12.696 462.267,40.201 456.672,40.201 456.672,18.981 456.594,18.981 451.302,40.201 445.81,40.201 
		440.782,18.981 440.712,18.981 440.712,40.201 	"/>
	<path display="inline" fill="#224099" d="M472.412,26.448c0-7.277,0-14.207,9.484-14.207c5.866,0,8.229,3.236,8,9.142h-5.642
		c0-3.659-0.646-5.029-2.358-5.029c-3.236,0-3.662,3.047-3.662,10.094c0,7.045,0.426,10.092,3.662,10.092
		c2.665,0,2.547-3.425,2.63-5.599h5.673c0,7.354-2.929,9.717-8.303,9.717C472.412,40.658,472.412,33.646,472.412,26.448"/>
	<path display="inline" fill="#224099" d="M492.519,26.448c0-7.277,0-14.207,9.487-14.207c9.484,0,9.484,6.929,9.484,14.207
		c0,7.199,0,14.21-9.484,14.21C492.519,40.658,492.519,33.646,492.519,26.448 M505.66,26.448c0-7.047-0.418-10.094-3.654-10.094
		c-3.239,0-3.657,3.047-3.657,10.094c0,7.045,0.418,10.092,3.657,10.092C505.242,36.54,505.66,33.493,505.66,26.448"/>
	<rect x="513.806" y="35.17" display="inline" fill="#224099" width="4.57" height="5.027"/>
	<polygon display="inline" fill="#224099" points="522.258,35.17 527.246,35.17 524.353,43.895 520.692,43.895 	"/>
	<polygon display="inline" fill="#224099" points="529.57,40.201 529.57,12.696 535.322,12.696 535.322,35.627 543.928,35.627 
		543.928,40.201 	"/>
	<polygon display="inline" fill="#224099" points="560.715,12.696 560.715,17.267 554.309,17.267 554.309,40.197 548.557,40.197 
		548.557,17.267 542.156,17.267 542.156,12.696 	"/>
	<path display="inline" fill="#224099" d="M563.026,12.698h9.603c7.539,0,8.952,5.028,8.952,13.599
		c0,4.228,0.65,13.905-9.185,13.905h-9.37V12.698z M568.781,35.974h2.779c3.508,0,4.189-2.63,4.189-9.526c0-5.067,0-9.521-4-9.521
		h-2.969V35.974z"/>
	<rect x="583.911" y="35.17" display="inline" fill="#224099" width="4.571" height="5.027"/>
</g>
<g id="Layer_3">
	<g display="none">
		<rect x="436.394" y="8.509" display="inline" fill="#21409A" width="1.586" height="33.909"/>
		<g display="inline">
			<path fill="#21409A" d="M444.04,21.385l2.763,2.404c4.96,0,11.252-2.656,12.891-5.967c1.639,3.271,7.976,5.967,12.894,5.967
				l2.766-2.404c-5.914-0.043-12.726-4.472-12.726-9.483v-0.205h10.261V8.509h-26.381v3.188h10.26v0.205
				C456.766,16.951,449.992,21.341,444.04,21.385z"/>
			<polygon fill="#21409A" points="443.006,27.387 443.006,30.534 456.805,30.534 456.805,42.418 462.626,42.418 462.626,30.534 
				476.387,30.534 476.387,27.387 			"/>
		</g>
		<rect x="481.412" y="8.509" display="inline" fill="#21409A" width="1.588" height="33.909"/>
	</g>
	<g>
		<g>
			<path fill="#21409A" d="M420.518,8.137v31.089h-12.463c-0.464,0-0.839-0.375-0.839-0.84v-7.439h-5.822v8.931
				c0,1.405,1.129,2.54,2.516,2.54h22.425v-2.002V8.137H420.518z"/>
			<path fill="#21409A" d="M406.2,21.756c1.03,2.939,5.479,5.963,9.139,6.299l2.8-2.362c-4.654-0.875-8.964-5.139-8.964-11.473
				V8.672h-5.913v5.548c0,6.25-4.268,10.599-9.009,11.473l2.889,2.362C400.723,27.678,405.293,24.695,406.2,21.756z"/>
		</g>
		<g>
			<path fill="#21409A" d="M374.389,29.125c-5.134,0-9.269,3.236-9.269,7.333c0,4.14,4.135,7.412,9.269,7.412
				c5.084,0,9.229-3.272,9.229-7.412C383.616,32.361,379.473,29.125,374.389,29.125z M374.389,40.764
				c-1.896,0-3.444-2.07-3.444-4.306c0-2.155,1.548-4.263,3.444-4.263c1.854,0,3.455,2.107,3.455,4.263
				C377.844,38.693,376.242,40.764,374.389,40.764z"/>
			<path fill="#21409A" d="M377.324,24.823v-2.568h10.337v-3.066h-19.193c-0.459,0-0.834-0.379-0.834-0.848v-1.383h19.469V13.85
				h-19.469v-2.32h19.638V8.425h-25.464v11.291c0,1.402,1.129,2.54,2.516,2.54h7.182v2.568h-13.586v3.145h32.985v-3.145
				L377.324,24.823L377.324,24.823z"/>
		</g>
		<path fill="#21409A" d="M341.591,27.715h7.3c1.383,0,2.511-1.13,2.511-2.533V8.634h-5.821v5.839h-13.844V8.634h-5.822v16.548
			c0,1.399,1.115,2.533,2.507,2.533h7.34v6.463h-13.019v3.147h31.827v-3.147h-12.979V27.715L341.591,27.715z M332.565,24.575
			c-0.46,0-0.829-0.384-0.829-0.848v-6.114h13.844v6.114c0,0.464-0.877,0.848-1.34,0.848H332.565z"/>
		<g>
			<path fill="#21409A" d="M311.899,8.215v7.124h-6.818v3.145h6.818v10.021c-1.189-0.426-2.49-0.661-3.873-0.661
				c-5.347,0-9.649,3.559-9.649,7.995c0,4.425,4.303,7.945,9.649,7.945c5.393,0,9.69-3.521,9.69-7.945v-0.004V8.215H311.899z
				 M308.026,40.555c-2.048,0-3.872-2.271-3.872-4.716c0-2.489,1.824-4.81,3.872-4.81c2.081,0,3.866,2.32,3.866,4.81
				C311.893,38.283,310.107,40.555,308.026,40.555z"/>
			<path fill="#21409A" d="M306.851,26.646l2.843-2.325c-4.697-0.87-9.003-5.173-9.003-11.508v-0.701h6.636v-3.15h-19.102v3.151
				h6.597v0.701c0,6.292-4.268,10.638-9.007,11.508l2.844,2.324c3.62-0.333,8.147-3.313,9.099-6.252
				C298.748,23.332,303.23,26.356,306.851,26.646z"/>
		</g>
		<path fill="#21409A" d="M276.64,8.137v17.968c-1.379,0.499-3.452,0.833-5.819,0.833h-10.071c-0.467,0-0.835-0.388-0.835-0.849
			v-4.914h11.896v-3.187h-11.896V12.4h12.07V9.253h-17.897v18.331c0,1.402,1.126,2.543,2.517,2.543l13.872-0.003
			c2.456,0,4.613-0.58,6.165-1.367v13.661h5.819V8.137H276.64z"/>
		<g>
			<path fill="#21409A" d="M243.627,8.137v21.027h-19.615v10.717c0,1.402,1.125,2.536,2.512,2.536h20.027
				c1.385,0,2.506-1.134,2.506-2.536v-8.4v-2.315V8.137H243.627z M243.239,38.387c0,0.465-0.372,0.84-0.835,0.84h-11.735
				c-0.464,0-0.836-0.375-0.836-0.84v-6.072h13.406V38.387z"/>
			<path fill="#21409A" d="M234.184,18.945h2.071v7.993h5.436V8.134h-5.436v7.621h-2.157c-0.904-3.811-4.481-6.703-8.794-6.703
				c-4.958,0-9.017,3.85-9.017,8.566c0,4.677,4.059,8.484,9.017,8.484C229.789,26.101,233.542,22.999,234.184,18.945z
				 M221.766,17.617c0-2.978,1.64-5.383,3.538-5.383c1.893,0,3.532,2.405,3.532,5.383c0,2.981-1.641,5.339-3.532,5.339
				C223.405,22.957,221.766,20.598,221.766,17.617z"/>
		</g>
		<g>
			<path fill="#21409A" d="M207.119,8.134v19.632c-3.202-1.339-6.805-6.18-6.805-12.302V8.882h-5.662v6.582
				c0,6.544-4.116,11.679-7.517,12.55l2.749,2.4c2.482-0.332,6.764-3.645,7.599-6.788c0.917,3.146,5.161,6.501,7.641,6.788
				l1.995-1.77v13.772h5.819V8.134H207.119z"/>
			<path fill="#21409A" d="M190.61,23.173c2.094-3.69,2.263-6.458,2.263-8.244V8.882h-5.662v6.582c0,6.54-4.117,11.679-7.514,12.55
				l2.745,2.396C185.217,29.689,188.793,26.372,190.61,23.173z"/>
		</g>
	</g>
</g>
<g>
	<polygon fill="#21409A" points="99.417,6.004 111.288,14.802 125.14,14.802 125.14,46 137.008,46 137.008,14.802 150.859,14.802 
		162.733,6.004 	"/>
	<g>
		<polygon fill="#21409A" points="92.783,6.004 63.102,6.004 51.228,14.802 51.228,46 63.102,46 63.102,14.802 92.783,14.802 
			92.783,46 104.653,46 104.653,14.802 		"/>
		<rect x="72.008" y="18.798" fill="#21409A" width="11.875" height="27.202"/>
	</g>
	<polygon fill="#21409A" points="18.874,14.802 44.599,14.802 56.468,6 18.874,6 7,14.802 7,37.202 18.874,46 47.274,46 
		47.274,37.202 18.874,37.202 	"/>
</g>
</svg>
